<svg xmlns="http://www.w3.org/2000/svg" width="32" height="32" fill="none"><circle cx="16" cy="16" r="16" fill="#666"/><path fill="#fff" d="M16 5.5a10.5 10.5 0 1 0 0 21 10.5 10.5 0 0 0 0-21Zm0 19.385a8.884 8.884 0 1 1 0-17.768 8.884 8.884 0 0 1 0 17.768Z"/><path fill="#fff" d="M11.792 15.79a.808.808 0 0 0 1.147 0l1.899-1.898a2.157 2.157 0 0 0-2.472-3.457 2.148 2.148 0 0 0-2.472 3.457l1.898 1.898Zm-.759-3.829a.524.524 0 0 1 .76 0 .808.808 0 0 0 1.146 0 .534.534 0 0 1 .76 0 .527.527 0 0 1 0 .76l-1.333 1.357-1.333-1.309a.525.525 0 0 1 0-.759v-.049ZM19.062 15.79a.807.807 0 0 0 1.146 0l1.899-1.898a2.157 2.157 0 0 0-2.472-3.457 2.148 2.148 0 0 0-2.472 3.457l1.899 1.898Zm-.76-3.829a.524.524 0 0 1 .76 0 .807.807 0 0 0 1.146 0 .534.534 0 0 1 .76 0 .525.525 0 0 1 0 .76l-1.333 1.357-1.333-1.309a.525.525 0 0 1 0-.759v-.049ZM21.654 16.808a.808.808 0 0 0-.808.808c0 2.229-2.173 4.038-4.846 4.038-2.674 0-4.846-1.81-4.846-4.038a.808.808 0 1 0-1.616 0c0 3.117 2.9 5.653 6.462 5.653s6.462-2.536 6.462-5.653a.808.808 0 0 0-.808-.808Z"/></svg>